<mxfile host="Electron" modified="2024-03-16T09:37:08.287Z" agent="Mozilla/5.0 (X11; Linux x86_64) AppleWebKit/537.36 (KHTML, like Gecko) draw.io/24.0.4 Chrome/120.0.6099.109 Electron/28.1.0 Safari/537.36" etag="haZveXf91zRUK92hmQm_" version="24.0.4" type="device">
  <diagram name="Page-1" id="bUzElv2l2GWEFmTksL0H">
    <mxGraphModel dx="139" dy="661" grid="1" gridSize="10" guides="1" tooltips="1" connect="1" arrows="1" fold="1" page="1" pageScale="1" pageWidth="850" pageHeight="1100" math="0" shadow="0">
      <root>
        <mxCell id="0" />
        <mxCell id="1" parent="0" />
        <mxCell id="l8w7lDZAc4AGo3SvnFqO-1" value="" style="rounded=0;whiteSpace=wrap;html=1;strokeWidth=1;fillColor=none;" parent="1" vertex="1">
          <mxGeometry x="948" y="60" width="120" height="578.5" as="geometry" />
        </mxCell>
        <mxCell id="QkMXo-uOz5fR3eblIkdU-6" value="" style="rounded=0;whiteSpace=wrap;html=1;strokeWidth=1;" parent="1" vertex="1">
          <mxGeometry x="1240" y="40" width="120" height="650" as="geometry" />
        </mxCell>
        <mxCell id="QkMXo-uOz5fR3eblIkdU-9" value="&lt;font style=&quot;font-size: 16px;&quot;&gt;Pamięć fizyczna&lt;/font&gt;" style="text;html=1;align=center;verticalAlign=middle;whiteSpace=wrap;rounded=0;" parent="1" vertex="1">
          <mxGeometry x="1240" y="10" width="120" height="30" as="geometry" />
        </mxCell>
        <mxCell id="QkMXo-uOz5fR3eblIkdU-42" value="" style="endArrow=none;html=1;rounded=0;strokeColor=none;" parent="1" edge="1">
          <mxGeometry width="50" height="50" relative="1" as="geometry">
            <mxPoint x="920.43" y="640" as="sourcePoint" />
            <mxPoint x="920" y="40" as="targetPoint" />
          </mxGeometry>
        </mxCell>
        <mxCell id="ApAm6ha_IGB6OoukJDqG-1" value="&lt;font style=&quot;font-size: 17px;&quot;&gt;&lt;b&gt;0&lt;/b&gt;&lt;b&gt;&lt;br&gt;&lt;/b&gt;&lt;/font&gt;" style="text;html=1;align=center;verticalAlign=middle;whiteSpace=wrap;rounded=0;" parent="1" vertex="1">
          <mxGeometry x="1195" y="670" width="60" height="30" as="geometry" />
        </mxCell>
        <mxCell id="ApAm6ha_IGB6OoukJDqG-2" value="&lt;font style=&quot;font-size: 17px;&quot;&gt;&lt;b style=&quot;font-size: 17px;&quot;&gt;2&lt;/b&gt;&lt;/font&gt;&lt;font size=&quot;1&quot;&gt;&lt;b&gt;&lt;sup style=&quot;font-size: 10px;&quot;&gt;N&lt;/sup&gt;&lt;/b&gt;&lt;/font&gt;" style="text;html=1;align=center;verticalAlign=middle;whiteSpace=wrap;rounded=0;fontSize=17;" parent="1" vertex="1">
          <mxGeometry x="1195" y="23" width="60" height="30" as="geometry" />
        </mxCell>
        <mxCell id="ApAm6ha_IGB6OoukJDqG-3" value="" style="endArrow=none;html=1;rounded=0;strokeColor=none;" parent="1" edge="1">
          <mxGeometry width="50" height="50" relative="1" as="geometry">
            <mxPoint x="1680.4299999999998" y="648.5" as="sourcePoint" />
            <mxPoint x="1680" y="48.5" as="targetPoint" />
          </mxGeometry>
        </mxCell>
        <mxCell id="l8w7lDZAc4AGo3SvnFqO-3" value="&lt;font style=&quot;font-size: 17px;&quot;&gt;&lt;b style=&quot;font-size: 17px;&quot;&gt;2&lt;/b&gt;&lt;/font&gt;&lt;font size=&quot;1&quot;&gt;&lt;b&gt;&lt;sup style=&quot;font-size: 10px;&quot;&gt;N&lt;/sup&gt;&lt;/b&gt;&lt;/font&gt;" style="text;html=1;align=center;verticalAlign=middle;whiteSpace=wrap;rounded=0;fontSize=17;" parent="1" vertex="1">
          <mxGeometry x="921" y="47" width="30" height="30" as="geometry" />
        </mxCell>
        <mxCell id="l8w7lDZAc4AGo3SvnFqO-6" value="&lt;font style=&quot;font-size: 17px;&quot;&gt;&lt;b&gt;0&lt;/b&gt;&lt;b&gt;&lt;br&gt;&lt;/b&gt;&lt;/font&gt;" style="text;html=1;align=center;verticalAlign=middle;whiteSpace=wrap;rounded=0;" parent="1" vertex="1">
          <mxGeometry x="935" y="620" width="13" height="30" as="geometry" />
        </mxCell>
        <mxCell id="4U6riaCsUl9iuARCi7AS-1" value="&lt;b&gt;stack&lt;/b&gt;" style="rounded=0;whiteSpace=wrap;html=1;fillColor=#D5E8D4;strokeWidth=1;" parent="1" vertex="1">
          <mxGeometry x="948" y="120" width="120" height="120" as="geometry" />
        </mxCell>
        <mxCell id="4U6riaCsUl9iuARCi7AS-2" value="&lt;b&gt;.rodata&lt;/b&gt;" style="rounded=0;whiteSpace=wrap;html=1;fillColor=#D5E8D4;strokeWidth=1;" parent="1" vertex="1">
          <mxGeometry x="948" y="360" width="120" height="40" as="geometry" />
        </mxCell>
        <mxCell id="4U6riaCsUl9iuARCi7AS-3" value="&lt;b&gt;.data&lt;/b&gt;" style="rounded=0;whiteSpace=wrap;html=1;fillColor=#D5E8D4;strokeWidth=1;" parent="1" vertex="1">
          <mxGeometry x="948" y="400" width="120" height="80" as="geometry" />
        </mxCell>
        <mxCell id="4U6riaCsUl9iuARCi7AS-5" value="" style="rounded=0;whiteSpace=wrap;html=1;fillColor=#D5E8D4;strokeWidth=1;" parent="1" vertex="1">
          <mxGeometry x="948" y="520" width="120" height="40" as="geometry" />
        </mxCell>
        <mxCell id="QkMXo-uOz5fR3eblIkdU-12" value="&lt;b&gt;.text&lt;/b&gt;" style="rounded=0;whiteSpace=wrap;html=1;fillColor=#D5E8D4;strokeWidth=1;" parent="1" vertex="1">
          <mxGeometry x="948" y="480" width="120" height="120" as="geometry" />
        </mxCell>
        <mxCell id="4U6riaCsUl9iuARCi7AS-11" value="&lt;b style=&quot;font-size: 17px;&quot;&gt;r - x&lt;/b&gt;" style="rounded=0;whiteSpace=wrap;html=1;fillColor=#D5E8D4;strokeWidth=1;" parent="1" vertex="1">
          <mxGeometry x="1240" y="520.75" width="120" height="120" as="geometry" />
        </mxCell>
        <mxCell id="4U6riaCsUl9iuARCi7AS-9" value="&lt;b style=&quot;font-size: 17px;&quot;&gt;r w -&lt;/b&gt;" style="rounded=0;whiteSpace=wrap;html=1;fillColor=#D5E8D4;strokeWidth=1;" parent="1" vertex="1">
          <mxGeometry x="1240" y="440.75" width="120" height="80" as="geometry" />
        </mxCell>
        <mxCell id="dCZ3f5gwbwnDsk1tALXl-1" value="" style="rounded=0;whiteSpace=wrap;html=1;strokeWidth=1;fillColor=none;" parent="1" vertex="1">
          <mxGeometry x="1559" y="60.75" width="120" height="578.5" as="geometry" />
        </mxCell>
        <mxCell id="dCZ3f5gwbwnDsk1tALXl-3" value="&lt;font style=&quot;font-size: 17px;&quot;&gt;&lt;b style=&quot;font-size: 17px;&quot;&gt;2&lt;/b&gt;&lt;/font&gt;&lt;font size=&quot;1&quot;&gt;&lt;b&gt;&lt;sup style=&quot;font-size: 10px;&quot;&gt;N&lt;/sup&gt;&lt;/b&gt;&lt;/font&gt;" style="text;html=1;align=center;verticalAlign=middle;whiteSpace=wrap;rounded=0;fontSize=17;" parent="1" vertex="1">
          <mxGeometry x="1532" y="47.75" width="30" height="30" as="geometry" />
        </mxCell>
        <mxCell id="dCZ3f5gwbwnDsk1tALXl-4" value="&lt;font style=&quot;font-size: 17px;&quot;&gt;&lt;b&gt;0&lt;/b&gt;&lt;b&gt;&lt;br&gt;&lt;/b&gt;&lt;/font&gt;" style="text;html=1;align=center;verticalAlign=middle;whiteSpace=wrap;rounded=0;" parent="1" vertex="1">
          <mxGeometry x="1546" y="620.75" width="13" height="30" as="geometry" />
        </mxCell>
        <mxCell id="dCZ3f5gwbwnDsk1tALXl-5" value="&lt;b&gt;stack&lt;/b&gt;" style="rounded=0;whiteSpace=wrap;html=1;fillColor=#FFCE9F;strokeWidth=1;" parent="1" vertex="1">
          <mxGeometry x="1559" y="120.75" width="120" height="120" as="geometry" />
        </mxCell>
        <mxCell id="dCZ3f5gwbwnDsk1tALXl-6" value="&lt;b&gt;.rodata&lt;/b&gt;" style="rounded=0;whiteSpace=wrap;html=1;fillColor=#FFCE9F;strokeWidth=1;" parent="1" vertex="1">
          <mxGeometry x="1559" y="360.75" width="120" height="40" as="geometry" />
        </mxCell>
        <mxCell id="dCZ3f5gwbwnDsk1tALXl-7" value="&lt;b&gt;.data&lt;/b&gt;" style="rounded=0;whiteSpace=wrap;html=1;fillColor=#FFCE9F;strokeWidth=1;" parent="1" vertex="1">
          <mxGeometry x="1559" y="400.75" width="120" height="80" as="geometry" />
        </mxCell>
        <mxCell id="dCZ3f5gwbwnDsk1tALXl-8" value="" style="rounded=0;whiteSpace=wrap;html=1;fillColor=#D5E8D4;strokeWidth=1;" parent="1" vertex="1">
          <mxGeometry x="1559" y="520.75" width="120" height="40" as="geometry" />
        </mxCell>
        <mxCell id="dCZ3f5gwbwnDsk1tALXl-9" value="&lt;b&gt;.text&lt;/b&gt;" style="rounded=0;whiteSpace=wrap;html=1;fillColor=#FFCE9F;strokeWidth=1;" parent="1" vertex="1">
          <mxGeometry x="1559" y="480.75" width="120" height="120" as="geometry" />
        </mxCell>
        <mxCell id="dCZ3f5gwbwnDsk1tALXl-11" value="&lt;b style=&quot;font-size: 17px;&quot;&gt;r w -&lt;/b&gt;" style="rounded=0;whiteSpace=wrap;html=1;fillColor=#FFCE9F;strokeWidth=1;" parent="1" vertex="1">
          <mxGeometry x="1240" y="200.75" width="120" height="80" as="geometry" />
        </mxCell>
        <mxCell id="dCZ3f5gwbwnDsk1tALXl-12" value="" style="endArrow=classic;html=1;rounded=0;entryX=0;entryY=0.5;entryDx=0;entryDy=0;exitX=1;exitY=0.5;exitDx=0;exitDy=0;" parent="1" source="QkMXo-uOz5fR3eblIkdU-12" target="4U6riaCsUl9iuARCi7AS-11" edge="1">
          <mxGeometry width="50" height="50" relative="1" as="geometry">
            <mxPoint x="1080" y="540" as="sourcePoint" />
            <mxPoint x="1230" y="580" as="targetPoint" />
          </mxGeometry>
        </mxCell>
        <mxCell id="dCZ3f5gwbwnDsk1tALXl-13" value="" style="endArrow=classic;html=1;rounded=0;exitX=1;exitY=0.5;exitDx=0;exitDy=0;entryX=0;entryY=0.5;entryDx=0;entryDy=0;" parent="1" source="4U6riaCsUl9iuARCi7AS-3" target="4U6riaCsUl9iuARCi7AS-9" edge="1">
          <mxGeometry width="50" height="50" relative="1" as="geometry">
            <mxPoint x="1080" y="440" as="sourcePoint" />
            <mxPoint x="1230" y="480" as="targetPoint" />
          </mxGeometry>
        </mxCell>
        <mxCell id="dCZ3f5gwbwnDsk1tALXl-14" value="" style="endArrow=classic;html=1;rounded=0;entryX=1;entryY=0.5;entryDx=0;entryDy=0;exitX=0;exitY=0.5;exitDx=0;exitDy=0;" parent="1" source="dCZ3f5gwbwnDsk1tALXl-9" target="4U6riaCsUl9iuARCi7AS-11" edge="1">
          <mxGeometry width="50" height="50" relative="1" as="geometry">
            <mxPoint x="1550" y="540" as="sourcePoint" />
            <mxPoint x="1360.0000000000002" y="340.75" as="targetPoint" />
          </mxGeometry>
        </mxCell>
        <mxCell id="dCZ3f5gwbwnDsk1tALXl-15" value="" style="endArrow=classic;html=1;rounded=0;entryX=1;entryY=0.5;entryDx=0;entryDy=0;exitX=0;exitY=0.5;exitDx=0;exitDy=0;" parent="1" source="dCZ3f5gwbwnDsk1tALXl-7" target="dCZ3f5gwbwnDsk1tALXl-11" edge="1">
          <mxGeometry width="50" height="50" relative="1" as="geometry">
            <mxPoint x="1550" y="441" as="sourcePoint" />
            <mxPoint x="1370" y="240.75" as="targetPoint" />
          </mxGeometry>
        </mxCell>
      </root>
    </mxGraphModel>
  </diagram>
</mxfile>
